<mxfile host="app.diagrams.net" agent="Mozilla/5.0 (Windows NT 10.0; Win64; x64) AppleWebKit/537.36 (KHTML, like Gecko) Chrome/129.0.0.0 Safari/537.36 Edg/129.0.0.0" version="24.7.17">
  <diagram name="Página-1" id="SGmm8rrdlW-q47kv5xOz">
    <mxGraphModel dx="1823" dy="1738" grid="1" gridSize="10" guides="1" tooltips="1" connect="1" arrows="1" fold="1" page="1" pageScale="1" pageWidth="827" pageHeight="1169" math="0" shadow="0">
      <root>
        <mxCell id="0" />
        <mxCell id="1" parent="0" />
        <mxCell id="jlQAEaQ0vPvspKt9tHi2-5" value="" style="edgeStyle=orthogonalEdgeStyle;rounded=0;orthogonalLoop=1;jettySize=auto;html=1;" edge="1" parent="1" source="jlQAEaQ0vPvspKt9tHi2-1" target="jlQAEaQ0vPvspKt9tHi2-4">
          <mxGeometry relative="1" as="geometry" />
        </mxCell>
        <mxCell id="jlQAEaQ0vPvspKt9tHi2-1" value="run_store_procedure_one&#xa;(PythonOperator - MsSqlHook)" style="whiteSpace=wrap;strokeWidth=2;fontStyle=0;fillColor=#dae8fc;strokeColor=#6c8ebf;" vertex="1" parent="1">
          <mxGeometry x="-200" y="40" width="173" height="48" as="geometry" />
        </mxCell>
        <mxCell id="jlQAEaQ0vPvspKt9tHi2-2" style="edgeStyle=orthogonalEdgeStyle;rounded=0;orthogonalLoop=1;jettySize=auto;html=1;" edge="1" parent="1" source="jlQAEaQ0vPvspKt9tHi2-3" target="jlQAEaQ0vPvspKt9tHi2-1">
          <mxGeometry relative="1" as="geometry">
            <Array as="points">
              <mxPoint x="-240" y="64" />
            </Array>
          </mxGeometry>
        </mxCell>
        <mxCell id="jlQAEaQ0vPvspKt9tHi2-3" value="unknown_trigger&#xa;(sensor)" style="whiteSpace=wrap;strokeWidth=2;fillColor=#f5f5f5;fontColor=#333333;strokeColor=#666666;" vertex="1" parent="1">
          <mxGeometry x="-290" y="-80" width="110" height="48" as="geometry" />
        </mxCell>
        <mxCell id="jlQAEaQ0vPvspKt9tHi2-7" value="" style="edgeStyle=orthogonalEdgeStyle;rounded=0;orthogonalLoop=1;jettySize=auto;html=1;" edge="1" parent="1" source="jlQAEaQ0vPvspKt9tHi2-4" target="jlQAEaQ0vPvspKt9tHi2-6">
          <mxGeometry relative="1" as="geometry" />
        </mxCell>
        <mxCell id="jlQAEaQ0vPvspKt9tHi2-8" value="It´s correct" style="edgeLabel;html=1;align=center;verticalAlign=middle;resizable=0;points=[];" vertex="1" connectable="0" parent="jlQAEaQ0vPvspKt9tHi2-7">
          <mxGeometry x="-0.2887" y="1" relative="1" as="geometry">
            <mxPoint x="14" y="1" as="offset" />
          </mxGeometry>
        </mxCell>
        <mxCell id="jlQAEaQ0vPvspKt9tHi2-10" value="" style="edgeStyle=orthogonalEdgeStyle;rounded=0;orthogonalLoop=1;jettySize=auto;html=1;" edge="1" parent="1" source="jlQAEaQ0vPvspKt9tHi2-4" target="jlQAEaQ0vPvspKt9tHi2-9">
          <mxGeometry relative="1" as="geometry" />
        </mxCell>
        <mxCell id="jlQAEaQ0vPvspKt9tHi2-11" value="It´s not correct" style="edgeLabel;html=1;align=center;verticalAlign=middle;resizable=0;points=[];" vertex="1" connectable="0" parent="jlQAEaQ0vPvspKt9tHi2-10">
          <mxGeometry x="-0.1405" y="1" relative="1" as="geometry">
            <mxPoint as="offset" />
          </mxGeometry>
        </mxCell>
        <mxCell id="jlQAEaQ0vPvspKt9tHi2-4" value="verify_correct_execution&lt;div&gt;&lt;div&gt;(BranchPythonOperator)&lt;/div&gt;&lt;/div&gt;" style="whiteSpace=wrap;html=1;fillColor=#fff2cc;strokeColor=#d6b656;strokeWidth=2;fontStyle=0;" vertex="1" parent="1">
          <mxGeometry x="10" y="34" width="150" height="60" as="geometry" />
        </mxCell>
        <mxCell id="jlQAEaQ0vPvspKt9tHi2-13" value="" style="rounded=0;orthogonalLoop=1;jettySize=auto;html=1;exitX=1;exitY=0.5;exitDx=0;exitDy=0;entryX=0;entryY=0.5;entryDx=0;entryDy=0;" edge="1" parent="1" source="jlQAEaQ0vPvspKt9tHi2-6" target="jlQAEaQ0vPvspKt9tHi2-12">
          <mxGeometry relative="1" as="geometry" />
        </mxCell>
        <mxCell id="jlQAEaQ0vPvspKt9tHi2-16" style="rounded=0;orthogonalLoop=1;jettySize=auto;html=1;entryX=0;entryY=0.5;entryDx=0;entryDy=0;exitX=1;exitY=0.5;exitDx=0;exitDy=0;" edge="1" parent="1" source="jlQAEaQ0vPvspKt9tHi2-6" target="jlQAEaQ0vPvspKt9tHi2-14">
          <mxGeometry relative="1" as="geometry" />
        </mxCell>
        <mxCell id="jlQAEaQ0vPvspKt9tHi2-6" value="generate_reports&lt;br&gt;(PythonOperator -&amp;nbsp;MsSqlHook)" style="whiteSpace=wrap;html=1;fillColor=#dae8fc;strokeColor=#6c8ebf;strokeWidth=2;fontStyle=0;" vertex="1" parent="1">
          <mxGeometry x="250" y="34" width="170" height="60" as="geometry" />
        </mxCell>
        <mxCell id="jlQAEaQ0vPvspKt9tHi2-9" value="&lt;div&gt;send_error_notification&lt;/div&gt;&lt;div&gt;(EmailOperator)&lt;/div&gt;" style="whiteSpace=wrap;html=1;fillColor=#dae8fc;strokeColor=#6c8ebf;strokeWidth=2;fontStyle=0;" vertex="1" parent="1">
          <mxGeometry x="10" y="174" width="150" height="60" as="geometry" />
        </mxCell>
        <mxCell id="jlQAEaQ0vPvspKt9tHi2-12" value="send_reports&lt;br&gt;(EmailOperator)" style="whiteSpace=wrap;html=1;fillColor=#dae8fc;strokeColor=#6c8ebf;strokeWidth=2;fontStyle=0;" vertex="1" parent="1">
          <mxGeometry x="490" y="-10" width="150" height="60" as="geometry" />
        </mxCell>
        <mxCell id="jlQAEaQ0vPvspKt9tHi2-14" value="send_success_notification&lt;br&gt;(EmailOperator)" style="whiteSpace=wrap;html=1;fillColor=#dae8fc;strokeColor=#6c8ebf;strokeWidth=2;fontStyle=0;" vertex="1" parent="1">
          <mxGeometry x="490" y="70" width="150" height="60" as="geometry" />
        </mxCell>
      </root>
    </mxGraphModel>
  </diagram>
</mxfile>
